<mxfile host="Electron" modified="2024-08-02T09:34:23.947Z" agent="Mozilla/5.0 (Windows NT 10.0; Win64; x64) AppleWebKit/537.36 (KHTML, like Gecko) draw.io/24.4.8 Chrome/124.0.6367.207 Electron/30.0.6 Safari/537.36" etag="Js8lpNiAuPiwEFmvoY9Y" version="24.4.8" type="device">
  <diagram name="Page-1" id="6h7XjxKtgOni8jH2CvwF">
    <mxGraphModel dx="1594" dy="932" grid="1" gridSize="10" guides="1" tooltips="1" connect="1" arrows="1" fold="1" page="1" pageScale="1" pageWidth="827" pageHeight="1169" math="0" shadow="0">
      <root>
        <mxCell id="0" />
        <mxCell id="1" parent="0" />
        <mxCell id="6GeDF-HbLgo6mYOldPdA-2" value="0" style="text;html=1;strokeColor=none;fillColor=none;align=center;verticalAlign=middle;whiteSpace=wrap;rounded=0;" parent="1" vertex="1">
          <mxGeometry x="220" y="70" width="60" height="30" as="geometry" />
        </mxCell>
        <mxCell id="6GeDF-HbLgo6mYOldPdA-4" value="1" style="text;html=1;strokeColor=none;fillColor=none;align=center;verticalAlign=middle;whiteSpace=wrap;rounded=0;" parent="1" vertex="1">
          <mxGeometry x="220" y="110" width="60" height="30" as="geometry" />
        </mxCell>
        <mxCell id="6GeDF-HbLgo6mYOldPdA-6" value="2" style="text;html=1;strokeColor=none;fillColor=none;align=center;verticalAlign=middle;whiteSpace=wrap;rounded=0;" parent="1" vertex="1">
          <mxGeometry x="220" y="150" width="60" height="30" as="geometry" />
        </mxCell>
        <mxCell id="6GeDF-HbLgo6mYOldPdA-7" value="3" style="text;html=1;strokeColor=none;fillColor=none;align=center;verticalAlign=middle;whiteSpace=wrap;rounded=0;" parent="1" vertex="1">
          <mxGeometry x="220" y="190" width="60" height="30" as="geometry" />
        </mxCell>
        <mxCell id="6GeDF-HbLgo6mYOldPdA-8" value="4" style="text;html=1;strokeColor=none;fillColor=none;align=center;verticalAlign=middle;whiteSpace=wrap;rounded=0;" parent="1" vertex="1">
          <mxGeometry x="220" y="230" width="60" height="30" as="geometry" />
        </mxCell>
        <mxCell id="6GeDF-HbLgo6mYOldPdA-9" value="5" style="text;html=1;strokeColor=none;fillColor=none;align=center;verticalAlign=middle;whiteSpace=wrap;rounded=0;" parent="1" vertex="1">
          <mxGeometry x="220" y="270" width="60" height="30" as="geometry" />
        </mxCell>
        <mxCell id="6GeDF-HbLgo6mYOldPdA-10" value="6" style="text;html=1;strokeColor=none;fillColor=none;align=center;verticalAlign=middle;whiteSpace=wrap;rounded=0;" parent="1" vertex="1">
          <mxGeometry x="220" y="310" width="60" height="30" as="geometry" />
        </mxCell>
        <mxCell id="6GeDF-HbLgo6mYOldPdA-11" value="7" style="text;html=1;strokeColor=none;fillColor=none;align=center;verticalAlign=middle;whiteSpace=wrap;rounded=0;" parent="1" vertex="1">
          <mxGeometry x="220" y="350" width="60" height="30" as="geometry" />
        </mxCell>
        <mxCell id="6GeDF-HbLgo6mYOldPdA-12" value="8" style="text;html=1;strokeColor=none;fillColor=none;align=center;verticalAlign=middle;whiteSpace=wrap;rounded=0;" parent="1" vertex="1">
          <mxGeometry x="220" y="390" width="60" height="30" as="geometry" />
        </mxCell>
        <mxCell id="6GeDF-HbLgo6mYOldPdA-13" value="9" style="text;html=1;strokeColor=none;fillColor=none;align=center;verticalAlign=middle;whiteSpace=wrap;rounded=0;" parent="1" vertex="1">
          <mxGeometry x="220" y="430" width="60" height="30" as="geometry" />
        </mxCell>
        <mxCell id="6GeDF-HbLgo6mYOldPdA-14" value="10" style="text;html=1;strokeColor=none;fillColor=none;align=center;verticalAlign=middle;whiteSpace=wrap;rounded=0;" parent="1" vertex="1">
          <mxGeometry x="220" y="470" width="60" height="30" as="geometry" />
        </mxCell>
        <mxCell id="6GeDF-HbLgo6mYOldPdA-15" value="11" style="text;html=1;strokeColor=none;fillColor=none;align=center;verticalAlign=middle;whiteSpace=wrap;rounded=0;" parent="1" vertex="1">
          <mxGeometry x="220" y="510" width="60" height="30" as="geometry" />
        </mxCell>
        <mxCell id="6GeDF-HbLgo6mYOldPdA-16" value="12" style="text;html=1;strokeColor=none;fillColor=none;align=center;verticalAlign=middle;whiteSpace=wrap;rounded=0;" parent="1" vertex="1">
          <mxGeometry x="220" y="560" width="60" height="10" as="geometry" />
        </mxCell>
        <mxCell id="6GeDF-HbLgo6mYOldPdA-17" value="13" style="text;html=1;strokeColor=none;fillColor=none;align=center;verticalAlign=middle;whiteSpace=wrap;rounded=0;" parent="1" vertex="1">
          <mxGeometry x="220" y="590" width="60" height="30" as="geometry" />
        </mxCell>
        <mxCell id="6GeDF-HbLgo6mYOldPdA-18" value="14" style="text;html=1;strokeColor=none;fillColor=none;align=center;verticalAlign=middle;whiteSpace=wrap;rounded=0;" parent="1" vertex="1">
          <mxGeometry x="220" y="630" width="60" height="30" as="geometry" />
        </mxCell>
        <mxCell id="6GeDF-HbLgo6mYOldPdA-19" value="15" style="text;html=1;strokeColor=none;fillColor=none;align=center;verticalAlign=middle;whiteSpace=wrap;rounded=0;" parent="1" vertex="1">
          <mxGeometry x="220" y="670" width="60" height="30" as="geometry" />
        </mxCell>
        <mxCell id="6GeDF-HbLgo6mYOldPdA-20" value="16" style="text;html=1;strokeColor=none;fillColor=none;align=center;verticalAlign=middle;whiteSpace=wrap;rounded=0;" parent="1" vertex="1">
          <mxGeometry x="220" y="710" width="60" height="30" as="geometry" />
        </mxCell>
        <mxCell id="6GeDF-HbLgo6mYOldPdA-21" value="17" style="text;html=1;strokeColor=none;fillColor=none;align=center;verticalAlign=middle;whiteSpace=wrap;rounded=0;" parent="1" vertex="1">
          <mxGeometry x="220" y="750" width="60" height="30" as="geometry" />
        </mxCell>
        <mxCell id="6GeDF-HbLgo6mYOldPdA-22" value="18" style="text;html=1;strokeColor=none;fillColor=none;align=center;verticalAlign=middle;whiteSpace=wrap;rounded=0;" parent="1" vertex="1">
          <mxGeometry x="220" y="790" width="60" height="30" as="geometry" />
        </mxCell>
        <mxCell id="6GeDF-HbLgo6mYOldPdA-23" value="Infant" style="rounded=0;whiteSpace=wrap;html=1;fillColor=#dae8fc;strokeColor=#6c8ebf;" parent="1" vertex="1">
          <mxGeometry x="360" y="160" width="80" height="80" as="geometry" />
        </mxCell>
        <mxCell id="6GeDF-HbLgo6mYOldPdA-24" value="Preparatory" style="rounded=0;whiteSpace=wrap;html=1;fillColor=#dae8fc;strokeColor=#6c8ebf;" parent="1" vertex="1">
          <mxGeometry x="360" y="240" width="80" height="240" as="geometry" />
        </mxCell>
        <mxCell id="6GeDF-HbLgo6mYOldPdA-25" value="Junior" style="rounded=0;whiteSpace=wrap;html=1;fillColor=#dae8fc;strokeColor=#6c8ebf;" parent="1" vertex="1">
          <mxGeometry x="360" y="480" width="80" height="200" as="geometry" />
        </mxCell>
        <mxCell id="6GeDF-HbLgo6mYOldPdA-26" value="Senior" style="rounded=0;whiteSpace=wrap;html=1;fillColor=#dae8fc;strokeColor=#6c8ebf;" parent="1" vertex="1">
          <mxGeometry x="360" y="680" width="80" height="120" as="geometry" />
        </mxCell>
        <mxCell id="6GeDF-HbLgo6mYOldPdA-27" value="Kindergarten" style="rounded=0;whiteSpace=wrap;html=1;" parent="1" vertex="1">
          <mxGeometry x="440" y="160" width="80" height="120" as="geometry" />
        </mxCell>
        <mxCell id="6GeDF-HbLgo6mYOldPdA-29" value="Elementary" style="rounded=0;whiteSpace=wrap;html=1;" parent="1" vertex="1">
          <mxGeometry x="440" y="280" width="80" height="280" as="geometry" />
        </mxCell>
        <mxCell id="6GeDF-HbLgo6mYOldPdA-30" value="Advanced" style="rounded=0;whiteSpace=wrap;html=1;" parent="1" vertex="1">
          <mxGeometry x="440" y="560" width="80" height="240" as="geometry" />
        </mxCell>
        <mxCell id="P8C7SrZKZXJbuHrPrdCs-2" value="Elementary" style="rounded=0;whiteSpace=wrap;html=1;fillColor=#f8cecc;strokeColor=#b85450;" parent="1" vertex="1">
          <mxGeometry x="680" y="320" width="80" height="200" as="geometry" />
        </mxCell>
        <mxCell id="P8C7SrZKZXJbuHrPrdCs-3" value="Middle" style="rounded=0;whiteSpace=wrap;html=1;fillColor=#f8cecc;strokeColor=#b85450;" parent="1" vertex="1">
          <mxGeometry x="680" y="520" width="80" height="120" as="geometry" />
        </mxCell>
        <mxCell id="P8C7SrZKZXJbuHrPrdCs-4" value="High" style="rounded=0;whiteSpace=wrap;html=1;fillColor=#f8cecc;strokeColor=#b85450;" parent="1" vertex="1">
          <mxGeometry x="680" y="640" width="80" height="160" as="geometry" />
        </mxCell>
        <mxCell id="P8C7SrZKZXJbuHrPrdCs-7" value="Kindergarten" style="rounded=0;whiteSpace=wrap;html=1;fillColor=#d5e8d4;strokeColor=#82b366;" parent="1" vertex="1">
          <mxGeometry x="520" y="240" width="80" height="40" as="geometry" />
        </mxCell>
        <mxCell id="P8C7SrZKZXJbuHrPrdCs-8" value="Elementary" style="rounded=0;whiteSpace=wrap;html=1;fillColor=#d5e8d4;strokeColor=#82b366;" parent="1" vertex="1">
          <mxGeometry x="520" y="280" width="80" height="200" as="geometry" />
        </mxCell>
        <mxCell id="P8C7SrZKZXJbuHrPrdCs-13" value="Upper" style="rounded=0;whiteSpace=wrap;html=1;fillColor=#fff2cc;strokeColor=#d6b656;" parent="1" vertex="1">
          <mxGeometry x="600" y="600" width="80" height="120" as="geometry" />
        </mxCell>
        <mxCell id="P8C7SrZKZXJbuHrPrdCs-14" value="Middle" style="rounded=0;whiteSpace=wrap;html=1;fillColor=#fff2cc;strokeColor=#d6b656;" parent="1" vertex="1">
          <mxGeometry x="600" y="480" width="80" height="120" as="geometry" />
        </mxCell>
        <mxCell id="P8C7SrZKZXJbuHrPrdCs-15" value="Lower" style="rounded=0;whiteSpace=wrap;html=1;fillColor=#fff2cc;strokeColor=#d6b656;" parent="1" vertex="1">
          <mxGeometry x="600" y="280" width="80" height="200" as="geometry" />
        </mxCell>
        <mxCell id="P8C7SrZKZXJbuHrPrdCs-16" value="Middle" style="rounded=0;whiteSpace=wrap;html=1;fillColor=#d5e8d4;strokeColor=#82b366;" parent="1" vertex="1">
          <mxGeometry x="520" y="480" width="80" height="120" as="geometry" />
        </mxCell>
        <mxCell id="P8C7SrZKZXJbuHrPrdCs-17" value="High" style="rounded=0;whiteSpace=wrap;html=1;fillColor=#d5e8d4;strokeColor=#82b366;" parent="1" vertex="1">
          <mxGeometry x="520" y="600" width="80" height="160" as="geometry" />
        </mxCell>
        <mxCell id="P8C7SrZKZXJbuHrPrdCs-18" value="Kindergarten" style="rounded=0;whiteSpace=wrap;html=1;fillColor=#ffe6cc;strokeColor=#d79b00;" parent="1" vertex="1">
          <mxGeometry x="280" y="80" width="80" height="200" as="geometry" />
        </mxCell>
        <mxCell id="P8C7SrZKZXJbuHrPrdCs-20" value="Preschool" style="rounded=0;whiteSpace=wrap;html=1;fillColor=#ffe6cc;strokeColor=#d79b00;" parent="1" vertex="1">
          <mxGeometry x="280" y="280" width="80" height="40" as="geometry" />
        </mxCell>
        <mxCell id="P8C7SrZKZXJbuHrPrdCs-21" value="Elementary" style="rounded=0;whiteSpace=wrap;html=1;fillColor=#ffe6cc;strokeColor=#d79b00;" parent="1" vertex="1">
          <mxGeometry x="280" y="320" width="80" height="280" as="geometry" />
        </mxCell>
        <mxCell id="P8C7SrZKZXJbuHrPrdCs-22" value="High" style="rounded=0;whiteSpace=wrap;html=1;fillColor=#ffe6cc;strokeColor=#d79b00;" parent="1" vertex="1">
          <mxGeometry x="280" y="600" width="80" height="120" as="geometry" />
        </mxCell>
        <mxCell id="P8C7SrZKZXJbuHrPrdCs-23" value="Gymnasium" style="rounded=0;whiteSpace=wrap;html=1;fillColor=#ffe6cc;strokeColor=#d79b00;" parent="1" vertex="1">
          <mxGeometry x="280" y="720" width="80" height="120" as="geometry" />
        </mxCell>
        <mxCell id="P8C7SrZKZXJbuHrPrdCs-24" value="19" style="text;html=1;strokeColor=none;fillColor=none;align=center;verticalAlign=middle;whiteSpace=wrap;rounded=0;" parent="1" vertex="1">
          <mxGeometry x="220" y="830" width="60" height="30" as="geometry" />
        </mxCell>
      </root>
    </mxGraphModel>
  </diagram>
</mxfile>
